<svg width="32" height="32" viewBox="0 0 32 32" fill="none" xmlns="http://www.w3.org/2000/svg">
<rect x="0.5" y="0.5" width="31" height="31" rx="15.5" fill="white" stroke="#D72D20"/>
<path d="M17.7273 14.125C17.6477 13.8485 17.536 13.6042 17.392 13.392C17.2481 13.1761 17.072 12.9943 16.8636 12.8466C16.6591 12.6951 16.4242 12.5795 16.1591 12.5C15.8977 12.4205 15.608 12.3807 15.2898 12.3807C14.6951 12.3807 14.1723 12.5284 13.7216 12.8239C13.2746 13.1193 12.9261 13.5492 12.6761 14.1136C12.4261 14.6742 12.3011 15.3598 12.3011 16.1705C12.3011 16.9811 12.4242 17.6705 12.6705 18.2386C12.9167 18.8068 13.2652 19.2405 13.7159 19.5398C14.1667 19.8352 14.6989 19.983 15.3125 19.983C15.8693 19.983 16.3447 19.8845 16.7386 19.6875C17.1364 19.4867 17.4394 19.2045 17.6477 18.8409C17.8598 18.4773 17.9659 18.0473 17.9659 17.5511L18.4659 17.625H15.4659V15.7727H20.3352V17.2386C20.3352 18.2614 20.1193 19.1402 19.6875 19.875C19.2557 20.6061 18.661 21.1705 17.9034 21.5682C17.1458 21.9621 16.2784 22.1591 15.3011 22.1591C14.2102 22.1591 13.2519 21.9186 12.4261 21.4375C11.6004 20.9527 10.9564 20.2652 10.4943 19.375C10.036 18.4811 9.80682 17.4205 9.80682 16.1932C9.80682 15.25 9.94318 14.4091 10.2159 13.6705C10.4924 12.928 10.8788 12.2992 11.375 11.7841C11.8712 11.2689 12.4489 10.8769 13.108 10.608C13.767 10.339 14.4811 10.2045 15.25 10.2045C15.9091 10.2045 16.5227 10.3011 17.0909 10.4943C17.6591 10.6837 18.1629 10.9527 18.6023 11.3011C19.0455 11.6496 19.4072 12.0644 19.6875 12.5455C19.9678 13.0227 20.1477 13.5492 20.2273 14.125H17.7273Z" fill="#D72D20"/>
</svg>
